<?xml version="1.0" encoding="UTF-8" standalone="no"?><!DOCTYPE svg PUBLIC "-//W3C//DTD SVG 1.1//EN" "http://www.w3.org/Graphics/SVG/1.1/DTD/svg11.dtd"><svg width="100%" height="100%" viewBox="0 0 116 32" version="1.1" xmlns="http://www.w3.org/2000/svg" xmlns:xlink="http://www.w3.org/1999/xlink" xml:space="preserve" xmlns:serif="http://www.serif.com/" style="fill-rule:evenodd;clip-rule:evenodd;stroke-linejoin:round;stroke-miterlimit:2;"><rect id="Mesa-de-trabajo1" serif:id="Mesa de trabajo1" x="0" y="0" width="115.386" height="31.78" style="fill:none;"/><clipPath id="_clip1"><rect x="0" y="0" width="115.386" height="31.78"/></clipPath><g clip-path="url(#_clip1)"><path d="M36.352,7.08c2.055,-1.696 10.107,-6.64 20.792,-6.64c12.76,0 20.207,5.697 23.954,8.855c4.66,3.927 9.965,9.467 14.666,13.428c3.857,3.251 9.533,5.785 14.282,7.483c2.926,1.046 5.633,2.014 5.633,2.014l-115.386,0c0,0 1.861,-0.765 4.063,-1.67c4.699,-1.93 9.461,-3.922 13.379,-7.156c5.8,-4.787 14.041,-12.537 18.617,-16.314Z" style="fill:#b71312;"/></g></svg>